SplineFontDB: 3.0
FontName: A_Rivaj_Content
FullName: A_Rivaj_Content
FamilyName: A_Rivaj_Content
Weight: Regular
Copyright: Copyright (c) 2017, inemanicka
UComments: "2017-11-12: Created with FontForge (http://fontforge.org)"
Version: 001.000
ItalicAngle: 0
UnderlinePosition: -102
UnderlineWidth: 50
Ascent: 820
Descent: 204
InvalidEm: 0
LayerCount: 2
Layer: 0 0 "Back" 1
Layer: 1 0 "Fore" 0
XUID: [1021 260 -1120133661 23103]
StyleMap: 0x0000
FSType: 0
OS2Version: 0
OS2_WeightWidthSlopeOnly: 0
OS2_UseTypoMetrics: 1
CreationTime: 1510465065
ModificationTime: 1511621811
PfmFamily: 49
TTFWeight: 500
TTFWidth: 5
LineGap: 92
VLineGap: 92
OS2TypoAscent: 0
OS2TypoAOffset: 1
OS2TypoDescent: 0
OS2TypoDOffset: 1
OS2TypoLinegap: 92
OS2WinAscent: 0
OS2WinAOffset: 1
OS2WinDescent: 0
OS2WinDOffset: 1
HheadAscent: 0
HheadAOffset: 1
HheadDescent: 0
HheadDOffset: 1
OS2XHeight: 100
OS2Vendor: 'PfEd'
Lookup: 258 0 0 "Elango_one_kern" { "Elango_one_kern-1" [153,15,0] } []
MarkAttachClasses: 1
DEI: 91125
LangName: 1033
Encoding: iso8859-5
Compacted: 1
UnicodeInterp: none
NameList: AGL For New Fonts
DisplaySize: -48
AntiAlias: 1
FitToEm: 0
WidthSeparation: 77
WinInfo: 0 32 11
BeginPrivate: 0
EndPrivate
Grid
-565.150390625 -29.890625 m 0
 1431.65039062 -29.890625 l 1024
  Named: "lelow curve start"
-545 -75.2294921875 m 4
 1451.79980469 -75.2294921875 l 1028
  Named: "lerge letter ends"
-565.150390625 443.669921875 m 0
 1431.65039062 443.669921875 l 1024
  Named: "483 - small letter h start"
-565.150390625 496.982421875 m 0
 1431.65039062 496.982421875 l 1024
  Named: "547 - small letter height"
-565.150390625 -430.147460938 m 0
 1431.65039062 -430.147460938 l 1024
246.049804688 1150.88671875 m 0
 246.049804688 -555.09765625 l 1024
287.650390625 1150.88671875 m 0
 287.650390625 -555.09765625 l 1024
-565.150390625 671.079101562 m 0
 1431.65039062 671.079101562 l 1024
-565.150390625 94.642578125 m 0
 1431.65039062 94.642578125 l 1024
-565.150390625 356.205078125 m 0

StartChar: A
Encoding: 65 65 0
Width: 392
VWidth: 60
Flags: HW
LayerCount: 2
Fore
SplineSet
282 317 m 1
 196 620 l 1
 110 317 l 1
 282 317 l 1
30 60 m 1
 30 189 l 1
 187 744 l 1
 205 744 l 1
 362 189 l 1
 362 60 l 1
 321 60 l 1
 321 179 l 1
 297 281 l 5
 95 281 l 5
 71 179 l 1
 71 60 l 1
 30 60 l 1
EndSplineSet
EndChar

StartChar: B
Encoding: 66 66 1
Width: 402
VWidth: 60
Flags: HW
LayerCount: 2
Fore
SplineSet
212.76953125 456 m 5
 246.76953125 466 275.76953125 509 292.76953125 541 c 4
 298.76953125 553 316.76953125 595 297.76953125 640 c 4
 288.76953125 662 236.76953125 694 215.76953125 691 c 5
 75.76953125 691 l 1
 75.76953125 456 l 1
 212.76953125 456 l 5
34.76953125 745 m 1
 214.76953125 744 l 5
 237.76953125 743 338.76953125 704 345.76953125 631 c 4
 348.76953125 594 345.76953125 565 337.76953125 539 c 4
 321.76953125 488 279.76953125 441 279.76953125 441 c 5
 290.76953125 438 356.76953125 394 364.76953125 325 c 4
 370.76953125 272 364.76953125 189 357.76953125 163 c 4
 346.76953125 125 317.76953125 68 253.76953125 61 c 5
 34.76953125 60 l 1
 34.76953125 745 l 1
240.76953125 114 m 5
 299.76953125 129 312.76953125 177 315.76953125 189 c 4
 319.76953125 208 328.76953125 290 314.76953125 330 c 4
 300.76953125 372 240.76953125 402 219.76953125 400 c 5
 76.76953125 400 l 1
 76.76953125 114 l 17
 240.76953125 114 l 5
EndSplineSet
EndChar

StartChar: i
Encoding: 105 105 2
Width: 253
VWidth: 53
Flags: HW
LayerCount: 2
Fore
SplineSet
121 576 m 1
 121 664 l 1
 183 664 l 1
 183 576 l 1
 121 576 l 1
151 54 m 1
 151 475 l 5
 70 475 l 5
 70 519 l 1
 183 519 l 1
 183 54 l 1
 151 54 l 1
EndSplineSet
EndChar

StartChar: C
Encoding: 67 67 3
Width: 401
VWidth: 60
Flags: HW
LayerCount: 2
Fore
SplineSet
242.5 105 m 5
 276.5 105 325.5 134 325.5 189 c 1
 325.5 274 l 1
 366.5 274 l 1
 366.5 193 l 17
 366.5 97 308.5 60 242.5 60 c 1
 179.5 60 l 1
 78.5 60 34.5 148 34.5 274 c 1
 34.5 530 l 1
 34.5 668 100.5 744 179.5 744 c 9
 242.5 744 l 1
 308.5 744 366.5 709 366.5 611 c 9
 366.5 532 l 1
 325.5 532 l 1
 325.5 615 l 1
 325.5 672 276.5 699 242.5 698 c 1
 179.5 698 l 1
 103.5 695 75.5 603 75.5 530 c 1
 75.5 274 l 1
 75.5 200 89.5 108 179.5 105 c 5
 242.5 105 l 5
EndSplineSet
EndChar

StartChar: D
Encoding: 68 68 4
Width: 405
VWidth: 60
Flags: HW
LayerCount: 2
Fore
SplineSet
160.5 114 m 1
 240.5 114 327.5 175 327.5 273 c 1
 327.5 530 l 1
 327.5 630 236.5 690 160.5 690 c 1
 77.5 690 l 1
 77.5 114 l 1
 160.5 114 l 1
160.5 60 m 1
 36.5 60 l 1
 36.5 744 l 1
 160.5 744 l 1
 284.5 744 368.5 644 368.5 530 c 1
 368.5 274 l 1
 368.5 148 281.5 60 160.5 60 c 1
EndSplineSet
EndChar

StartChar: E
Encoding: 69 69 5
Width: 492
VWidth: 60
Flags: HW
LayerCount: 2
Fore
SplineSet
70 60 m 1
 70 744 l 1
 402 744 l 1
 402 690 l 1
 111 690 l 1
 111 419 l 5
 377 419 l 5
 377 383 l 1
 111 383 l 1
 111 114 l 1
 402 114 l 1
 402 60 l 1
 70 60 l 1
EndSplineSet
EndChar

StartChar: F
Encoding: 70 70 6
Width: 398
VWidth: 60
Flags: HW
LayerCount: 2
Fore
SplineSet
33 60 m 1
 33 744 l 1
 365 744 l 1
 365 690 l 1
 74 690 l 1
 74 418 l 5
 340 418 l 5
 340 383 l 1
 74 383 l 1
 74 197 74 60 74 60 c 1
 33 60 l 1
EndSplineSet
EndChar

StartChar: G
Encoding: 71 71 7
Width: 403
VWidth: 60
Flags: HW
LayerCount: 2
Fore
SplineSet
367.5 552 m 1
 326.5 552 l 1
 326.5 615 l 17
 326.5 647 308.5 689 243.5 689 c 13
 159.5 689 l 1
 84.5 692 76.5 566 76.5 530 c 1
 76.5 230 l 1
 76.5 190 106.5 116 159.5 116 c 9
 243.5 116 l 17
 287.5 116 326.5 210 326.5 228 c 0
 326.5 305 l 1
 214.5 305 l 1
 214.5 359 l 1
 367.5 359 l 1
 367.5 60 l 1
 326.5 60 l 1
 326.5 140 l 1
 323.5 125 307.5 60 243.5 60 c 0
 159.5 60 l 16
 77.5 60 35.5 146 35.5 230 c 1
 35.5 530 l 17
 35.5 612 71.5 744 159.5 744 c 1
 243.5 744 l 17
 299.5 744 367.5 706 367.5 615 c 9
 367.5 615 367.5 588 367.5 552 c 1
EndSplineSet
EndChar

StartChar: H
Encoding: 72 72 8
Width: 409
VWidth: 60
Flags: HW
LayerCount: 2
Fore
SplineSet
38.5 60 m 1
 38.5 744 l 1
 79.5 744 l 1
 79.5 424 l 1
 329.5 423 l 1
 329.5 744 l 1
 370.5 744 l 1
 370.5 60 l 1
 329.5 60 l 1
 329.5 388 l 5
 79.5 388 l 5
 79.5 60 l 1
 38.5 60 l 1
EndSplineSet
EndChar

StartChar: I
Encoding: 73 73 9
Width: 387
VWidth: 60
Flags: HW
HStem: 60 54<66.9996 172 213 317> 690 54<66.9996 172 213 317>
VStem: 172 41<114 690>
LayerCount: 2
Fore
SplineSet
67 744 m 1
 317 744 l 1
 317 690 l 1
 213 690 l 1
 213 114 l 1
 317 114 l 1
 317 60 l 1
 67 60 l 1
 67 115 l 1
 172 114 l 1
 172 690 l 1
 67 690 l 1
 67 744 l 1
EndSplineSet
EndChar

StartChar: J
Encoding: 74 74 10
Width: 399
VWidth: 60
Flags: HW
LayerCount: 2
Fore
SplineSet
324.5 744 m 1
 365.5 744 l 1
 365.5 317 l 1
 365.5 176 327.5 60 241.5 60 c 1
 157.5 60 l 1
 65.5 60 33.5 159 33.5 274 c 9
 33.5 317 l 1
 74.5 317 l 1
 74.5 274 l 17
 74.5 197 95.5 116 161.5 116 c 1
 241.5 115 l 1
 292.5 115 324.5 196 324.5 317 c 1
 324.5 744 l 1
EndSplineSet
EndChar

StartChar: K
Encoding: 75 75 11
Width: 393
VWidth: 60
Flags: HW
LayerCount: 2
Fore
SplineSet
30 60 m 1
 30 744 l 1
 71 744 l 1
 71 402 l 1
 296 744 l 1
 350 744 l 1
 140 425 l 1
 363 60 l 1
 311 60 l 1
 113 384 l 1
 71 320 l 1
 71 60 l 1
 30 60 l 1
EndSplineSet
EndChar

StartChar: L
Encoding: 76 76 12
Width: 398
VWidth: 60
Flags: HW
LayerCount: 2
Fore
SplineSet
33 60 m 1
 33 744 l 1
 74 744 l 1
 74 114 l 21
 365 114 l 5
 365 60 l 1
 33 60 l 1
EndSplineSet
EndChar

StartChar: M
Encoding: 77 77 13
Width: 410
VWidth: 60
InSpiro: 1
Flags: HW
LayerCount: 2
Fore
SplineSet
38.53515625 60.6298828125 m 1
 38.53515625 743.690429688 l 1
 84.099609375 743.690429688 l 1
 205 395.49609375 l 1
 325.900390625 743.690429688 l 1
 371.46484375 743.690429688 l 1
 371.400390625 60.6298828125 l 1
 329.799804688 60.6298828125 l 1
 329.799804688 623.73828125 l 1
 205 263.8828125 l 1
 80.2001953125 622.905273438 l 1
 80.2001953125 60.6298828125 l 1
 38.53515625 60.6298828125 l 1
  Spiro
    38.5353 60.63 v
    38.5353 743.69 v
    84.1 743.69 v
    205 395.496 v
    325.9 743.69 v
    371.465 743.69 v
    371.4 60.63 v
    329.8 60.63 v
    329.8 623.738 v
    205 263.882 v
    80.2 622.905 v
    80.2 60.63 v
    0 0 z
  EndSpiro
EndSplineSet
EndChar

StartChar: N
Encoding: 78 78 14
Width: 409
VWidth: 60
Flags: HW
LayerCount: 2
Fore
SplineSet
38.5 60 m 1
 38.5 744 l 1
 86.5 744 l 1
 329.5 173 l 1
 329.5 744 l 1
 370.5 744 l 1
 370.5 60 l 1
 329.5 60 l 1
 79.5 647 l 1
 79.5 60 l 1
 38.5 60 l 1
EndSplineSet
EndChar

StartChar: O
Encoding: 79 79 15
Width: 401
VWidth: 60
Flags: W
HStem: 60 55<119.691 282.558> 689 55<112.718 286.12>
VStem: 34.5 41<176.51 636.677> 325.5 41<176.51 636.353>
LayerCount: 2
Fore
SplineSet
158.5 115 m 5
 242.5 115 l 5
 293.5 115 325.5 203 325.5 274 c 5
 325.5 530 l 5
 325.5 595 304.5 689 242.5 689 c 7
 210.5 689 158.5 689 158.5 689 c 7
 94.5 689 75.5 596 75.5 530 c 7
 75.5 394 75.5 374 75.5 274 c 7
 75.5 204 107.5 115 158.5 115 c 5
34.5 274 m 5
 34.5 531 l 5
 34.5 658 93.5 744 159.5 744 c 5
 242.5 744 l 5
 306.5 744 366.5 658 366.5 530 c 5
 366.5 274 l 5
 366.5 145 313.5 60 242.5 60 c 5
 158.5 60 l 5
 92.5 60 34.5 145 34.5 274 c 5
EndSplineSet
EndChar

StartChar: P
Encoding: 80 80 16
Width: 401
VWidth: 60
Flags: HW
LayerCount: 2
Fore
SplineSet
75.5 412 m 1
 200.5 412 l 1
 260.5 412 325.5 448 325.5 499 c 5
 325.5 593 l 1
 325.5 635 251.5 689 200.5 689 c 1
 75.5 689 l 1
 75.5 412 l 1
34.5 60 m 1
 34.5 744 l 1
 200.5 744 l 1
 275.5 744 366.5 676 366.5 592 c 1
 366.5 499 l 21
 366.5 411 278.5 361 200.5 361 c 1
 75.5 361 l 1
 75.5 60 l 1
 34.5 60 l 1
EndSplineSet
EndChar

StartChar: Q
Encoding: 81 81 17
Width: 400
VWidth: 57
Flags: HW
LayerCount: 2
Fore
SplineSet
158 112 m 1
 158 112 243 106 253 121 c 0
 184 226 l 5
 220 251 l 0
 284 152 l 1
 284 152 325 183 325 271 c 1
 325 528 l 1
 325 593 304 687 242 687 c 3
 210 687 158 687 158 687 c 3
 94 687 75 593 75 527 c 3
 75 391 75 371 75 271 c 3
 75 201 107 112 158 112 c 1
34 271 m 1
 34 529 l 1
 34 656 93 741 159 741 c 1
 242 741 l 1
 306 741 366 656 366 528 c 1
 366 271 l 1
 366 170 312 110 312 110 c 1
 366 30 l 1
 308 30 l 1
 279 72 l 1
 280 72 260 58 237 58 c 1
 158 58 l 1
 92 58 34 142 34 271 c 1
EndSplineSet
EndChar

StartChar: R
Encoding: 82 82 18
Width: 400
VWidth: 60
Flags: HW
LayerCount: 2
Fore
SplineSet
75 410 m 1
 200 410 l 1
 260 410 325 445 325 496 c 1
 325 593 l 1
 325 635 251 689 200 689 c 1
 75 689 l 1
 75 410 l 1
34 60 m 1
 34 744 l 1
 200 744 l 1
 275 744 366 676 366 592 c 1
 366 496 l 1
 366 398 238 363 238 363 c 1
 366 60 l 0
 319 60 l 1
 192 360 l 1
 75 360 l 1
 75 60 l 1
 34 60 l 1
EndSplineSet
EndChar

StartChar: S
Encoding: 83 83 19
Width: 403
VWidth: 60
Flags: HW
LayerCount: 2
Fore
SplineSet
31 287 m 1
 72 287 l 1
 72 287 72 252 72 230 c 27
 72 168 133 115 177 115 c 0
 218 115 l 1
 301 116 322 186 322 230 c 0
 322 367 160 358 79 438 c 0
 46 471 31 511 31 555 c 1
 31 595 l 17
 31 682 93 744 177 744 c 0
 218 744 l 3
 293 744 363 663 363 573 c 1
 363 510 l 1
 322 510 l 1
 322 573 l 1
 322 641 263 688 218 689 c 1
 177 689 l 0
 94 689 72 625 72 573 c 0
 72 436 236 445 312 369 c 0
 344 337 363 298 363 253 c 1
 363 208 l 1
 363 120 301 60 218 60 c 1
 177 60 l 0
 104 60 31 139 31 230 c 27
 31 252 31 287 31 287 c 1
EndSplineSet
EndChar

StartChar: T
Encoding: 84 84 20
Width: 302
VWidth: 60
Flags: HW
LayerCount: 2
Fore
SplineSet
151 60 m 1
 151 698 l 1
 0 698 l 1
 0 744 l 1
 332 744 l 1
 332 698 l 1
 187 698 l 5
 187 60 l 5
 151 60 l 1
EndSplineSet
EndChar

StartChar: U
Encoding: 85 85 21
Width: 405
VWidth: 60
Flags: HW
LayerCount: 2
Fore
SplineSet
327.5 744 m 1
 368.5 744 l 1
 368.5 230 l 5
 368.5 145 286.5 60 223.5 60 c 1
 181.5 60 l 1
 119.5 60 36.5 145 36.5 230 c 1
 36.5 744 l 1
 77.5 744 l 25
 77.5 230 l 17
 77.5 180 127.5 114 181.5 114 c 1
 223.5 114 l 5
 278.5 114 327.5 180 327.5 230 c 5
 327.5 744 l 1
EndSplineSet
EndChar

StartChar: V
Encoding: 86 86 22
Width: 408
VWidth: 60
Flags: HW
LayerCount: 2
Fore
SplineSet
50 744 m 1
 91 744 l 1
 93 659 l 1
 200 230 l 1
 233 230 l 1
 339 659 l 1
 341 744 l 1
 382 744 l 1
 382 659 l 1
 234 60 l 1
 198 60 l 1
 50 659 l 1
 50 744 l 1
EndSplineSet
EndChar

StartChar: W
Encoding: 87 87 23
Width: 400
VWidth: 60
Flags: HW
LayerCount: 2
Fore
SplineSet
89 60 m 1
 34 376 l 1
 34 744 l 1
 75 744 l 1
 75 376 l 1
 112 167 l 1
 178 430 l 1
 179 530 l 1
 221 530 l 1
 222 430 l 1
 288 165 l 1
 325 376 l 1
 324 744 l 1
 366 744 l 1
 366 376 l 1
 314 60 l 1
 269 60 l 1
 200 341 l 0
 131 60 l 1
 89 60 l 1
EndSplineSet
EndChar

StartChar: X
Encoding: 88 88 24
Width: 389
VWidth: 60
Flags: HW
LayerCount: 2
Fore
SplineSet
319.5 60 m 1
 319.5 146 l 1
 194.5 402 l 25
 69.5 146 l 1
 69.5 60 l 1
 28.5 60 l 1
 28.5 161 l 1
 169.5 452 l 1
 28.5 744 l 1
 77.5 744 l 1
 194.5 503 l 1
 312.5 744 l 1
 360.5 744 l 1
 219.5 452 l 1
 360.5 161 l 1
 360.5 60 l 1
 319.5 60 l 1
EndSplineSet
EndChar

StartChar: Y
Encoding: 89 89 25
Width: 384
VWidth: 60
Flags: HW
LayerCount: 2
Fore
SplineSet
213 60 m 1
 171 60 l 1
 171 360 l 25
 26 659 l 1
 26 744 l 1
 67 744 l 1
 67 672 l 1
 192 417 l 1
 317 675 l 1
 317 744 l 1
 358 744 l 1
 358 659 l 1
 213 360 l 17
 213 60 l 1
EndSplineSet
EndChar

StartChar: Z
Encoding: 90 90 26
Width: 391
VWidth: 60
Flags: HW
LayerCount: 2
Fore
SplineSet
361.5 60 m 1
 29.5 60 l 1
 29.5 114 l 1
 313.5 690 l 1
 29.5 690 l 1
 29.5 744 l 1
 361.5 744 l 1
 361.5 690 l 1
 78.5 114 l 1
 361.5 114 l 1
 361.5 60 l 1
EndSplineSet
EndChar

StartChar: a
Encoding: 97 97 27
Width: 392
VWidth: 41
Flags: HW
LayerCount: 2
Fore
SplineSet
68.6142578125 220 m 0
 68.6142578125 178 l 3
 68.6142578125 141 120.614257812 92 151.614257812 92 c 1
 193.614257812 92 l 0
 245.614257812 92 317.614257812 122 317.614257812 195 c 1
 317.614257812 310 l 1
 172.614257812 304 l 0
 133.614257812 297 68.6142578125 258 68.6142578125 220 c 0
213.614257812 467 m 1
 151.614257812 467 l 0
 108.614257812 467 100.412109375 422 77.806640625 422 c 1
 41.806640625 422 35.9580078125 432.857421875 41.6142578125 447 c 0
 55.6142578125 482 104.614257812 506 151.614257812 506 c 2
 213.614257812 506 l 1
 273.614257812 506 359.614257812 468 359.614257812 368 c 1
 359.614257812 168 l 1
 359.614257812 147 355 105.642578125 386 106.642578125 c 5
 391 100.642578125 381.614257812 65 377.614257812 65 c 4
 331 68 l 1
 317.614257812 88 l 0
 317.614257812 70 276.614257812 57 193.614257812 57 c 1
 151.614257812 57 l 1
 109.614257812 57 26.6142578125 104 26.6142578125 178 c 1
 26.6142578125 220 l 2
 26.6142578125 280 98.6142578125 328 172.614257812 344 c 0
 317.614257812 351 l 1
 317.614257812 381 l 1
 316.614257812 418 270.614257812 467 213.614257812 467 c 1
EndSplineSet
EndChar

StartChar: b
Encoding: 98 98 28
Width: 405
VWidth: 61
Flags: HW
LayerCount: 2
Fore
SplineSet
78.5 376 m 4
 78.5 189 l 5
 78.5 152 126.5 109 181.5 109 c 5
 223.5 109 l 21
 284.5 109 327.5 162 327.5 185 c 13
 327.5 376 l 5
 327.5 414 285.5 465 223.5 465 c 13
 181.5 465 l 5
 114.5 465 78.5 418 78.5 376 c 4
77.5 55 m 5
 36.5 55 l 5
 36.5 751 l 5
 77.5 751 l 5
 77.5 502 l 5
 77.5 485 141.5 519 181.5 519 c 5
 223.5 519 l 21
 286.5 519 368.5 453 368.5 377 c 13
 368.5 185 l 5
 368.5 119 304.5 55 223.5 55 c 13
 181.5 55 l 21
 142.5 55 100.5 80 77.5 96 c 5
 77.5 55 l 5
EndSplineSet
EndChar

StartChar: c
Encoding: 99 99 29
Width: 399
VWidth: 41
Flags: HW
LayerCount: 2
Fore
SplineSet
157.5 86 m 5
 259.5 86 l 5
 282.5 86 324.5 113 324.5 166 c 1
 324.5 209 l 1
 365.5 209 l 1
 365.5 168 l 1
 365.5 79 317.5 41 259.5 41 c 1
 157.5 41 l 1
 82.5 41 33.5 86 33.5 172 c 1
 33.5 377 l 1
 33.5 463 82.5 506 159.5 506 c 1
 255.5 506 l 1
 312.5 506 365.5 456 365.5 375 c 1
 365.5 332 l 1
 324.5 332 l 1
 324.5 375 l 17
 324.5 424 278.5 462 255.5 462 c 1
 159.5 462 l 1
 111.5 462 74.5 427 74.5 376 c 1
 74.5 308 74.5 240 74.5 172 c 1
 74.5 112 111.5 87 157.5 86 c 5
EndSplineSet
EndChar

StartChar: d
Encoding: 100 100 30
Width: 403
VWidth: 61
Flags: HW
LayerCount: 2
Fore
SplineSet
325.5 373 m 13
 325.5 186 l 5
 325.5 149 277.5 106 222.5 106 c 5
 180.5 106 l 21
 119.5 106 76.5 159 76.5 182 c 13
 76.5 373 l 5
 76.5 411 118.5 462 180.5 462 c 13
 222.5 462 l 5
 289.5 462 325.5 415 325.5 373 c 13
326.5 52 m 5
 367.5 52 l 5
 367.5 748 l 5
 326.5 748 l 5
 326.5 499 l 5
 326.5 482 262.5 516 222.5 516 c 5
 180.5 516 l 21
 117.5 516 35.5 450 35.5 374 c 13
 35.5 182 l 5
 35.5 116 99.5 52 180.5 52 c 13
 222.5 52 l 21
 261.5 52 303.5 77 326.5 93 c 5
 326.5 52 l 5
EndSplineSet
EndChar

StartChar: e
Encoding: 101 101 31
Width: 400
VWidth: 41
Flags: HW
LayerCount: 2
Fore
SplineSet
159 83 m 9
 242 83 l 17
 265 83 325 85 325 138 c 9
 325 183 l 1
 366 183 l 1
 366 140 l 17
 366 51 300 44 242 44 c 9
 159 44 l 17
 81 44 34 90 34 172 c 9
 34 377 l 17
 34 463 81 497 158 497 c 9
 242 497 l 17
 299 497 366 448 366 367 c 9
 366 266 l 5
 75 267 l 5
 75 172 l 17
 75 112 115 84 159 83 c 9
75 305 m 5
 325 305 l 5
 325 367 l 17
 325 431 265 460 242 460 c 9
 159 460 l 17
 111 460 75 427 75 376 c 9
 75 305 l 5
EndSplineSet
EndChar

StartChar: f
Encoding: 102 102 32
Width: 386
VWidth: 61
Flags: HW
LayerCount: 2
Fore
SplineSet
172 62 m 1
 172 472 l 1
 27 472 l 1
 27 526 l 1
 172 526 l 1
 172 584 l 1
 172 660 220 758 277 758 c 1
 359 758 l 1
 359 704 l 1
 277 704 l 1
 242 703 214 633 214 584 c 1
 214 526 l 1
 359 526 l 1
 359 472 l 1
 214 472 l 25
 214 62 l 1
 172 62 l 1
EndSplineSet
EndChar

StartChar: g
Encoding: 103 103 33
Width: 403
VWidth: 25
Flags: HW
LayerCount: 2
Fore
SplineSet
325.5 169 m 9
 325.5 356 l 1
 325.5 393 277.5 436 222.5 436 c 1
 180.5 436 l 17
 119.5 436 76.5 383 76.5 360 c 9
 76.5 169 l 1
 76.5 131 118.5 80 180.5 80 c 9
 222.5 80 l 1
 290.5 80 325.5 127 325.5 169 c 9
326.5 491 m 1
 367.5 491 l 1
 367.5 -2 l 17
 367.5 -126 311.5 -148 222.5 -148 c 1
 180.5 -148 l 17
 92.5 -148 35.5 -118 35.5 -3 c 9
 35.5 33 l 1
 76.5 34 l 1
 76.5 -2 l 5
 76.5 -84 114.5 -93 180.5 -93 c 1
 222.5 -93 l 1
 289.5 -93 326.5 -90 326.5 -2 c 1
 326.5 44 l 1
 326.5 61 262.5 26 222.5 26 c 1
 180.5 26 l 17
 117.5 26 35.5 93 35.5 169 c 9
 35.5 360 l 1
 35.5 426 99.5 491 180.5 491 c 9
 222.5 491 l 17
 261.5 491 303.5 465 326.5 449 c 1
 326.5 491 l 1
EndSplineSet
EndChar

StartChar: h
Encoding: 104 104 34
Width: 406
VWidth: 61
Flags: HW
LayerCount: 2
Fore
SplineSet
37 54 m 5
 37 750 l 5
 78 750 l 5
 78 426 l 5
 86 469 143 518 183 518 c 13
 224 518 l 21
 288 518 369 444 369 316 c 13
 369 54 l 5
 328 54 l 5
 328 316 l 21
 328 396 288 464 224 464 c 5
 183 464 l 21
 138 464 78 358 78 300 c 13
 78 54 l 5
 37 54 l 5
EndSplineSet
EndChar

StartChar: j
Encoding: 106 106 35
Width: 213
VWidth: 38
Flags: HW
LayerCount: 2
Fore
SplineSet
121.5 571 m 5
 121.5 659 l 5
 183.5 658 l 5
 183.5 571 l 5
 121.5 571 l 5
142.5 449 m 1
 70.5 449 l 1
 70.5 504 l 1
 183.5 504 l 1
 183.5 144 l 17
 183.5 -41 159.5 -135 62.5 -135 c 9
 29.5 -135 l 25
 29.5 -80 l 1
 63.5 -80 l 2
 145.5 -80 142.5 44 142.5 143 c 9
 142.5 449 l 1
EndSplineSet
EndChar

StartChar: k
Encoding: 107 107 36
Width: 393
VWidth: 61
Flags: HW
LayerCount: 2
Fore
SplineSet
30 62 m 1
 30 758 l 1
 71 758 l 1
 71 296 l 1
 279 541 l 1
 342 541 l 1
 149 314 l 1
 363 62 l 1
 301 62 l 1
 118 277 l 1
 71 223 l 1
 71 62 l 1
 30 62 l 1
EndSplineSet
EndChar

StartChar: l
Encoding: 108 108 37
Width: 291
VWidth: 61
Flags: HW
LayerCount: 2
Fore
SplineSet
168 40 m 5
 168 691 l 5
 70 691 l 1
 70 736 l 1
 201 736 l 1
 201 40 l 1
 168 40 l 5
EndSplineSet
EndChar

StartChar: m
Encoding: 109 109 38
Width: 406
VWidth: 41
Flags: HW
LayerCount: 2
Fore
SplineSet
37 41 m 1
 37 506 l 1
 78 506 l 1
 78 417 l 1
 96 466 125 506 162 506 c 1
 197 506 209 439 209 439 c 17
 210 440 249 506 286 506 c 1
 345 506 369 432 369 312 c 1
 369 41 l 1
 328 41 l 1
 328 312 l 1
 328 346 328 450 286 452 c 1
 269 452 224 418 224 312 c 1
 224 41 l 1
 182 41 l 1
 182 312 l 1
 182 332 183 450 153 450 c 1
 137 450 78 340 78 312 c 1
 78 41 l 1
 37 41 l 1
EndSplineSet
EndChar

StartChar: n
Encoding: 110 110 39
Width: 405
VWidth: 41
Flags: HW
LayerCount: 2
Fore
SplineSet
36.5 41 m 1
 36.5 506 l 1
 77.5 506 l 1
 77.5 412 l 1
 93.5 455 142.5 500 182.5 500 c 9
 243.5 500 l 17
 318.5 500 368.5 433 368.5 304 c 9
 368.5 41 l 1
 327.5 41 l 1
 327.5 303 l 17
 327.5 383 314 462 243.5 463 c 5
 182.5 463 l 21
 144.5 463 97 398 77.5 322 c 9
 77.5 41 l 1
 36.5 41 l 1
EndSplineSet
EndChar

StartChar: o
Encoding: 111 111 40
Width: 399
VWidth: 41
Flags: HW
HStem: 41 55<105.623 293.612> 451 55<97.6293 301.007>
VStem: 33.5 41<132.345 425.844> 324.5 41<131.552 424.913>
LayerCount: 2
Fore
SplineSet
157.5 88 m 1
 241.5 88 l 1
 293.5 88 324.5 141 324.5 214 c 1
 324.5 346 l 1
 324.5 412 303.5 459 241.5 459 c 5
 209.5 459 157.5 459 157.5 459 c 5
 93.5 459 74.5 413 74.5 346 c 1
 74.5 207 74.5 316 74.5 214 c 1
 74.5 143 106.5 88 157.5 88 c 1
33.5 214 m 1
 33.5 346 l 1
 33.5 476 92.5 506 158.5 506 c 1
 241.5 506 l 1
 306.5 506 365.5 476 365.5 346 c 1
 365.5 214 l 1
 365.5 82 312.5 41 241.5 41 c 1
 157.5 41 l 1
 92.5 41 33.5 82 33.5 214 c 1
EndSplineSet
EndChar

StartChar: p
Encoding: 112 112 41
Width: 472
VWidth: 25
Flags: HW
LayerCount: 2
Fore
SplineSet
122 169 m 9
 122 356 l 1
 122 371 181 436 225 436 c 1
 267 436 l 17
 328 436 371 383 371 360 c 9
 371 169 l 1
 371 131 329 80 267 80 c 9
 225 80 l 1
 157 80 122 135 122 169 c 9
121 491 m 1
 80 491 l 1
 80 -148 l 1
 121 -148 l 1
 121 72 l 1
 121 80 157 26 225 26 c 1
 267 26 l 1
 330 26 412 93 412 169 c 9
 412 360 l 1
 412 426 348 491 267 491 c 9
 225 491 l 17
 173 491 144 453 121 437 c 1
 121 491 l 1
EndSplineSet
EndChar

StartChar: q
Encoding: 113 113 42
Width: 403
VWidth: 25
Flags: HW
LayerCount: 2
Fore
SplineSet
325.5 169 m 13
 325.5 356 l 5
 325.5 371 266.5 436 222.5 436 c 5
 180.5 436 l 21
 119.5 436 76.5 383 76.5 360 c 13
 76.5 169 l 5
 76.5 131 118.5 80 180.5 80 c 13
 222.5 80 l 5
 290.5 80 325.5 135 325.5 169 c 13
326.5 491 m 5
 367.5 491 l 5
 367.5 -148 l 5
 326.5 -148 l 5
 326.5 72 l 5
 326.5 80 290.5 26 222.5 26 c 5
 180.5 26 l 5
 117.5 26 35.5 93 35.5 169 c 13
 35.5 360 l 5
 35.5 426 99.5 491 180.5 491 c 13
 222.5 491 l 21
 274.5 491 303.5 453 326.5 437 c 5
 326.5 491 l 5
EndSplineSet
EndChar

StartChar: r
Encoding: 114 114 43
Width: 385
VWidth: 41
Flags: HW
LayerCount: 2
Fore
SplineSet
100 41 m 1
 100 506 l 1
 141 506 l 1
 142 419 l 1
 178 476 196 506 228 506 c 1
 276 506 l 1
 303 506 375 503 375 411 c 1
 375 383 l 1
 334 383 l 0
 334 411 l 1
 334 452.2890625 308 464.704101562 279 465 c 4
 231 465 l 5
 188 465 141 349 141 307 c 10
 141 41 l 1
 100 41 l 1
EndSplineSet
EndChar

StartChar: s
Encoding: 115 115 44
Width: 396
VWidth: 41
Flags: HW
LayerCount: 2
Fore
SplineSet
32 195 m 1
 73 195 l 1
 73 195 73 172 73 157 c 1
 73 115 134 89 178 89 c 9
 219 89 l 1
 302 90 323 127 323 157 c 1
 323 251 161 234 80 288 c 1
 47 311 32 348 32 378 c 1
 32 404 l 17
 32 463 94 506 178 506 c 9
 219 506 l 17
 294 506 364 451 364 390 c 1
 364 346 l 1
 323 346 l 1
 323 390 l 1
 323 436 264 457 219 458 c 5
 178 458 l 21
 95 458 73 425 73 390 c 1
 73 296 237 312 313 259 c 1
 345 237 364 203 364 172 c 1
 364 141 l 1
 364 81 302 41 219 41 c 1
 178 41 l 17
 105 41 32 95 32 157 c 1
 32 172 32 195 32 195 c 1
EndSplineSet
EndChar

StartChar: t
Encoding: 116 116 45
Width: 320
VWidth: 57
Flags: HW
LayerCount: 2
Fore
SplineSet
105.5 702 m 1
 147.5 702 l 1
 147.5 514 l 25
 292.5 514 l 1
 292.5 459 l 1
 147.5 459 l 1
 147.5 163 l 4
 147.5 115 161.5 79 192.5 79 c 1
 292.5 79 l 1
 292.5 49 l 1
 192.5 49 l 1
 135.5 49 105.5 110 105.5 162 c 1
 105.5 459 l 1
 27.5 459 l 1
 27.5 514 l 1
 105.5 514 l 25
 105.5 702 l 1
EndSplineSet
EndChar

StartChar: u
Encoding: 117 117 46
Width: 405
VWidth: 41
Flags: HW
LayerCount: 2
Fore
SplineSet
368.5 506 m 1
 368.5 41 l 1
 327.5 41 l 1
 327.5 135 l 1
 311.5 92 262.5 41 222.5 41 c 9
 161.5 41 l 17
 86.5 41 36.5 114 36.5 243 c 9
 36.5 506 l 1
 77.5 506 l 1
 77.5 244 l 17
 77.5 164 106.5 85 161.5 85 c 5
 222.5 85 l 21
 260.5 85 303.5 169 327.5 225 c 9
 327.5 506 l 1
 368.5 506 l 1
EndSplineSet
EndChar

StartChar: v
Encoding: 118 118 47
Width: 388
VWidth: 41
Flags: HW
LayerCount: 2
Fore
SplineSet
28 506 m 1
 69 506 l 1
 69 460 l 1
 172 157 l 1
 216 157 l 1
 319 458 l 1
 319 506 l 1
 360 506 l 1
 360 448 l 1
 221 41 l 1
 166 41 l 1
 28 448 l 1
 28 506 l 1
EndSplineSet
EndChar

StartChar: w
Encoding: 119 119 48
Width: 400
VWidth: 41
Flags: HW
LayerCount: 2
Fore
SplineSet
96 41 m 5
 34 255 l 5
 34 506 l 5
 75 506 l 5
 75 255 l 5
 117 113 l 5
 179 332 l 5
 179 390 l 5
 221 390 l 5
 221 332 l 5
 283 113 l 5
 325 255 l 5
 324 506 l 5
 366 506 l 5
 366 255 l 5
 304 41 l 5
 262 41 l 5
 200 255 l 4
 138 41 l 5
 96 41 l 5
EndSplineSet
EndChar

StartChar: x
Encoding: 120 120 49
Width: 387
VWidth: 41
Flags: W
HStem: 486 20G<27.5 96.2888 290.711 359.5>
VStem: 27.5 41<41 82> 318.5 41<41 83>
LayerCount: 2
Fore
SplineSet
318.5 41 m 1
 318.5 83 l 1
 193.5 264 l 1
 68.5 82 l 1
 68.5 41 l 1
 27.5 41 l 1
 27.5 104 l 1
 165.5 305 l 1
 27.5 506 l 1
 82.5 506 l 1
 193.5 345 l 1
 304.5 506 l 1
 359.5 506 l 1
 221.5 305 l 1
 359.5 104 l 1
 359.5 41 l 1
 318.5 41 l 1
EndSplineSet
EndChar

StartChar: y
Encoding: 121 121 50
Width: 380
VWidth: 25
Flags: HW
LayerCount: 2
Fore
SplineSet
167.5 68 m 1
 23.5 491 l 1
 69.5 491 l 1
 190.5 135 l 1
 311.5 491 l 1
 356.5 491 l 1
 173.5 -47 l 1
 153.5 -110 130.5 -148 91.5 -148 c 1
 23.5 -148 l 1
 23.5 -93 l 1
 92.5 -93 l 17
 115.5 -93 115.5 -81 128.5 -47 c 0
 167.5 68 l 1
EndSplineSet
EndChar

StartChar: z
Encoding: 122 122 51
Width: 396
VWidth: 41
Flags: W
HStem: 41 54<86 364> 452 54<32 310>
VStem: 32 332<41 95 452 506>
LayerCount: 2
Fore
SplineSet
364 41 m 1
 32 41 l 1
 32 105 l 1
 310 452 l 1
 32 452 l 1
 32 506 l 1
 364 506 l 1
 364 444 l 5
 86 95 l 1
 364 95 l 1
 364 41 l 1
EndSplineSet
EndChar

StartChar: zero
Encoding: 48 48 52
Width: 452
VWidth: 61
Flags: HW
HStem: 62 54<186.885 317.163> 704 54<186.731 317.163>
VStem: 85.7 42<184.903 634.667> 376.7 42<184.903 633.841>
LayerCount: 2
Fore
SplineSet
376.700195312 279 m 0
 376.700195312 541 l 1
 376.700195312 672 293.700195312 704 251.700195312 704 c 1
 209.700195312 704 127.700195312 671 127.700195312 541 c 1
 127.700195312 279 l 1
 128.700195312 147 209.700195312 116 251.700195312 116 c 1
 293.700195312 116 376.700195312 148 376.700195312 279 c 0
418.700195312 279 m 1
 418.700195312 148 335.700195312 62 251.700195312 62 c 1
 168.700195312 62 94.7001953125 148 94.7001953125 279 c 5
 94.7001953125 541 l 5
 94.7001953125 671 168.700195312 758 251.700195312 758 c 1
 335.700195312 758 418.700195312 670 418.700195312 540 c 1
 418.700195312 279 l 1
EndSplineSet
EndChar

StartChar: one
Encoding: 49 49 53
Width: 484
VWidth: 61
Flags: HW
HStem: 62 21G<270.2 311.2> 623 48<146.2 226.635> 738 20G<261.681 311.2>
VStem: 270.2 41<62 622 708.33 758>
LayerCount: 2
Fore
SplineSet
311.19921875 758 m 1
 311.19921875 534 311.19921875 294 311.19921875 62 c 1
 275.19921875 62 l 1
 275.19921875 634 l 1
 174.19921875 635 l 1
 174.19921875 666 l 5
 208.19921875 674 238.19921875 693 247.19921875 704 c 0
 253.19921875 711 270.19921875 758 270.19921875 758 c 1
 311.19921875 758 l 1
EndSplineSet
EndChar

StartChar: two
Encoding: 50 50 54
Width: 483
VWidth: 61
Flags: HW
LayerCount: 2
Fore
SplineSet
171.600585938 116 m 1049,0,-1
171.600585938 116 m 1,1,-1
 171.600585938 116 452.600585938 509 452.600585938 554 c 0,4,-1
 452.600585938 628 l 1,5,-1
 452.600585938 704 370.600585938 758 307.600585938 758 c 9,8,-1
 265.600585938 758 l 1,9,-1
 203.600585938 758 120.600585938 696 120.600585938 620 c 1,12,-1
 120.600585938 559 l 1,13,-1
 161.600585938 559 l 1,14,-1
 161.600585938 620 l 1,15,-1
 161.600585938 656 203.600585938 714 265.600585938 714 c 5,18,-1
 307.600585938 714 l 5,19,-1
 370.600585938 714 411.600585938 664 411.600585938 628 c 1,22,-1
 411.600585938 570 l 0,23,-1
 411.600585938 546 120.600585938 138 120.600585938 138 c 0,26,-1
 120.600585938 62 l 1,27,-1
 452.600585938 62 l 1,28,-1
 452.600585938 116 l 1,29,-1
 171.600585938 116 l 1,1,-1
EndSplineSet
EndChar

StartChar: three
Encoding: 51 51 55
Width: 459
VWidth: 61
Flags: HW
LayerCount: 2
Fore
SplineSet
254.5 466 m 1
 337.5 485 386.5 524 386.5 561 c 1
 386.5 628 l 1
 383.5 685 314.5 715 282.5 715 c 1
 240.5 716 l 1
 207.5 716 136.5 663 136.5 628 c 0
 136.5 584 l 1
 95.5 584 l 1
 95.5 628 l 0
 95.5 704 179.5 758 240.5 758 c 1
 282.5 758 l 1
 335.5 758 427.5 708 427.5 628 c 1
 427.5 561 l 1
 427.5 484 345.5 448 345.5 448 c 5
 345.5 448 427.5 414 427.5 318 c 1
 427.5 192 l 1
 427.5 149 386.5 62 282.5 62 c 1
 240.5 62 l 1
 150.5 62 95.5 124 95.5 192 c 1
 95.5 235 l 1
 136.5 235 l 1
 136.5 192 l 0
 136.5 162 178.5 102 240.5 102 c 1
 282.5 102 l 0
 328.5 102 375.5 125 386.5 192 c 1
 386.5 308 l 2
 386.5 400 318.5 414 254.5 413 c 1
 254.5 466 l 1
EndSplineSet
EndChar

StartChar: four
Encoding: 52 52 56
Width: 462
VWidth: 61
Flags: HW
LayerCount: 2
Fore
SplineSet
394.799804688 758 m 1
 394.799804688 289 l 25
 435.799804688 289 l 1
 435.799804688 243 l 5
 394.799804688 243 l 29
 394.799804688 62 l 1
 352.799804688 62 l 1
 352.799804688 243 l 29
 103.799804688 243 l 5
 103.799804688 306 l 1
 344.799804688 758 l 1
 394.799804688 758 l 1
352.799804688 680 m 1
 144.799804688 289 l 1
 352.799804688 289 l 1
 352.799804688 680 l 1
EndSplineSet
EndChar

StartChar: five
Encoding: 53 53 57
Width: 524
VWidth: 61
Flags: HW
LayerCount: 2
Fore
SplineSet
451.099609375 323 m 1
 451.099609375 401 394.099609375 459 324.099609375 459 c 1
 197.099609375 459 l 1
 197.099609375 416 l 1
 160.099609375 416 l 1
 160.099609375 758 l 1
 451.099609375 758 l 1
 451.099609375 716 l 1
 197.099609375 716 l 1
 197.099609375 501 l 1
 324.099609375 501 l 5
 402.099609375 501 492.099609375 423 492.099609375 323 c 1
 492.099609375 248 l 0
 492.099609375 170 419.099609375 80 342.099609375 80 c 1
 300.099609375 80 l 1
 226.099609375 80 160.099609375 136 160.099609375 205 c 1
 160.099609375 248 l 1
 198.099609375 248 l 1
 198.099609375 205 l 17
 198.099609375 168 241.099609375 119 300.099609375 119 c 9
 342.099609375 119 l 1
 395.099609375 119 451.099609375 184 451.099609375 248 c 1
 451.099609375 323 l 1
EndSplineSet
EndChar

StartChar: six
Encoding: 54 54 58
Width: 489
VWidth: 61
Flags: HW
LayerCount: 2
Fore
SplineSet
268.599609375 107 m 9
 321.599609375 107 l 21
 379.599609375 107 429.599609375 181 429.599609375 235 c 1
 429.599609375 367 l 1
 429.599609375 419 356.599609375 480 325.599609375 480 c 9
 268.599609375 480 l 1
 234.599609375 480 155.599609375 447 156.599609375 390 c 1
 156.599609375 235 l 1
 156.599609375 181 210.599609375 107 268.599609375 107 c 9
470.599609375 235 m 1
 470.599609375 148 414.599609375 62 321.599609375 62 c 5
 268.599609375 62 l 1
 178.599609375 62 123.599609375 148 123.599609375 235 c 1
 123.599609375 584 l 5
 123.599609375 687 223.599609375 751 310.599609375 751 c 1
 450.599609375 751 l 1
 450.599609375 717 l 1
 310.599609375 717 l 17
 250.599609375 717 153.599609375 660 153.599609375 584 c 9
 153.599609375 480 l 1
 153.599609375 472 154.599609375 475 159.599609375 475 c 1
 187.599609375 498 236.599609375 527 268.599609375 527 c 1
 325.599609375 527 l 1
 380.599609375 527 470.599609375 447 470.599609375 367 c 1
 470.599609375 235 l 1
EndSplineSet
EndChar

StartChar: seven
Encoding: 55 55 59
Width: 473
VWidth: 61
Flags: HW
LayerCount: 2
Fore
SplineSet
114.099609375 717 m 1
 114.099609375 758 l 1
 449.099609375 758 l 1
 449.099609375 704 l 1
 239.099609375 120 l 13
 239.099609375 62 l 1
 197.099609375 62 l 1
 197.099609375 134 l 5
 403.099609375 717 l 1
 114.099609375 717 l 1
EndSplineSet
EndChar

StartChar: eight
Encoding: 56 56 60
Width: 460
VWidth: 61
Flags: HW
LayerCount: 2
Fore
SplineSet
96.5 584 m 1
 96.5 628 l 1
 96.5 679 149.5 758 241.5 758 c 1
 287.5 758 l 1
 379.5 758 428.5 679 428.5 628 c 1
 428.5 584 l 1
 428.5 497 320.5 449 310.5 446 c 1
 348.5 433 428.5 382 428.5 308 c 1
 428.5 235 l 17
 428.5 142 367.5 62 283.5 62 c 1
 276.5 62 249.5 62 241.5 62 c 1
 169.5 62 96.5 144 96.5 235 c 9
 96.5 310 l 1
 96.5 385 166.5 433 195.5 447 c 1
 182.5 451 96.5 497 96.5 584 c 1
137.5 310 m 9
 137.5 235 l 17
 137.5 184 198.5 102 241.5 102 c 9
 283.5 102 l 17
 342.5 102 387.5 184 387.5 235 c 9
 387.5 308 l 1
 387.5 335 319.5 425 283.5 425 c 9
 241.5 425 l 17
 203.5 425 137.5 358 137.5 310 c 9
241.5 473 m 1
 283.5 473 l 1
 305.5 473 387.5 547 387.5 584 c 1
 387.5 628 l 1
 387.5 658 348.5 704 283.5 704 c 9
 241.5 704 l 1
 185.5 704 139.5 664 139.5 628 c 1
 139.5 584 l 1
 139.5 539 211.5 473 241.5 473 c 1
EndSplineSet
EndChar

StartChar: nine
Encoding: 57 57 61
Width: 471
VWidth: 61
Flags: HW
LayerCount: 2
Fore
SplineSet
291.900390625 705 m 9
 228.900390625 705 l 17
 170.900390625 705 145.900390625 640 145.900390625 586 c 1
 145.900390625 454 l 1
 145.900390625 395 186.900390625 349 228.900390625 349 c 9
 291.900390625 349 l 1
 325.900390625 349 395.900390625 402 394.900390625 459 c 1
 394.900390625 586 l 1
 394.900390625 640 349.900390625 705 291.900390625 705 c 9
104.900390625 586 m 1
 104.900390625 673 135.900390625 759 228.900390625 759 c 1
 291.900390625 759 l 1
 381.900390625 759 436.900390625 673 436.900390625 586 c 1
 436.900390625 237 l 1
 436.900390625 121 336.900390625 62 249.900390625 62 c 1
 104.900390625 61 l 1
 104.900390625 116 l 1
 249.900390625 116 l 1
 327.900390625 116 395.900390625 155 395.900390625 237 c 5
 395.900390625 341 l 1
 395.900390625 349 394.900390625 346 389.900390625 346 c 1
 361.900390625 323 323.900390625 294 291.900390625 294 c 1
 228.900390625 294 l 1
 162.900390625 294 104.900390625 367 104.900390625 454 c 1
 104.900390625 586 l 1
EndSplineSet
EndChar

StartChar: exclam
Encoding: 33 33 62
Width: 206
VWidth: 61
Flags: HMW
LayerCount: 2
Fore
SplineSet
107.799804688 140 m 1
 175.799804688 140 l 1
 175.799804688 62 l 1
 107.799804688 62 l 1
 107.799804688 140 l 1
120.799804688 232 m 1
 120.799804688 758 l 1
 162.799804688 758 l 1
 162.799804688 232 l 1
 120.799804688 232 l 1
EndSplineSet
EndChar

StartChar: dollar
Encoding: 36 36 63
Width: 396
VWidth: 61
Flags: HW
LayerCount: 2
Fore
SplineSet
32 334 m 1
 73 334 l 1
 73 334 73 300 73 277 c 0
 73 214 134 190 177 189 c 1
 177 378 l 1
 141 392 106 407 83 427 c 0
 45 460 32 484 32 529 c 2
 32 569 l 2
 32 657 93 689 177 689 c 1
 177 758 l 1
 219 758 l 1
 219 689 l 1
 294 689 364 639 364 547 c 2
 364 482 l 1
 323 482 l 1
 323 547 l 2
 323 616 264 633 219 634 c 2
 219 666 l 1
 219 426 l 1
 253 413 284 402 300 390 c 0
 335 364 364 346 364 300 c 2
 364 254 l 2
 364 165 302 134 219 134 c 1
 219 62 l 1
 177 62 l 1
 177 134 l 1
 104 134 32 185 32 277 c 0
 32 300 32 334 32 334 c 1
177 634 m 1
 95 634 73 599 73 547 c 0
 73 497 123 466 177 443 c 1
 177 634 l 1
219 189 m 1
 302 190 324 232 323 277 c 0
 322 316 274 340 219 362 c 1
 219 189 l 1
EndSplineSet
EndChar

StartChar: comma
Encoding: 44 44 64
Width: 213
VWidth: 15
Flags: HMW
LayerCount: 2
Fore
SplineSet
182.526367188 189 m 1
 182.526367188 75 l 2
 182.526367188 36 152.526367188 15 139.526367188 15 c 0
 136.526367188 15 102.526367188 14 101.526367188 15 c 1
 97.5263671875 78 142.526367188 34 145.526367188 93 c 4
 146.526367188 106 119.526367188 121 119.526367188 121 c 1
 119.526367188 189 l 1
 182.526367188 189 l 1
EndSplineSet
EndChar

StartChar: period
Encoding: 46 46 65
Width: 294
VWidth: 10
Flags: HMW
LayerCount: 2
Fore
SplineSet
224 124 m 1
 224 22 l 5
 130 22 l 5
 130 124 l 1
 224 124 l 1
EndSplineSet
EndChar

StartChar: hyphen
Encoding: 45 45 66
Width: 401
VWidth: 65
Flags: HMW
LayerCount: 2
Fore
SplineSet
34.5 457 m 5
 366.5 458 l 1
 366.5 412 l 1
 34.5 411 l 5
 34.5 457 l 5
EndSplineSet
EndChar

StartChar: parenleft
Encoding: 40 40 67
Width: 267
VWidth: 60
Flags: HW
LayerCount: 2
Fore
SplineSet
240.599609375 794 m 1029,0,0
240.599609375 30 m 5,0,0
 157.599609375 30 52.599609375 228 52.599609375 400 c 4,10,-1
 52.599609375 544 161.599609375 794 240.599609375 794 c 5,0,0
 186.599609375 747 94.599609375 565 94.599609375 402 c 5,24,-1
 94.599609375 203 173.599609375 95 240.599609375 30 c 5,0,0
240.599609375 30 m 1029,0,0
EndSplineSet
EndChar

StartChar: parenright
Encoding: 41 41 68
Width: 279
VWidth: 60
Flags: HW
LayerCount: 2
Fore
SplineSet
64.900390625 776 m 1025,0,0
64.900390625 32 m 5,0,0
 147.900390625 32 252.900390625 230 252.900390625 402 c 0,10,-1
 252.900390625 546 143.900390625 776 64.900390625 776 c 1,0,0
 118.900390625 729 210.900390625 567 210.900390625 404 c 1,24,-1
 210.900390625 205 131.900390625 97 64.900390625 32 c 5,0,0
64.900390625 32 m 1029,0,0
EndSplineSet
EndChar

StartChar: asterisk
Encoding: 42 42 69
Width: 372
VWidth: 60
Flags: HW
LayerCount: 2
Fore
SplineSet
152.96095602 333.947585383 m 5
 69.8445018321 221.603367085 l 5
 52.5920694048 244.031529241 l 5
 165.956673368 392.942661565 l 5
 170.588994722 399.027490462 l 5
 165.930142913 405.092030317 l 5
 54.6745431243 549.916130042 l 5
 71.8872939631 571.718947771 l 5
 153.066138577 465.912813218 l 5
 171 442.53834215 l 5
 171 472 l 5
 171 669 l 5
 201 669 l 5
 201 472 l 5
 201 443.017702968 l 5
 218.872280535 465.833380247 l 5
 305.030688275 575.822836936 l 5
 322.347157845 553.888642147 l 5
 209.043326632 405.057338435 l 5
 204.436629882 399.006168975 l 5
 209.037381817 392.950478393 l 5
 321.430987686 245.013595454 l 5
 304.99443377 223.476042047 l 5
 218.945411503 336.0721031 l 5
 201 359.55386496 l 5
 201 330 l 5
 201 137.8019998 l 5
 171 137.2019998 l 5
 171 328 l 5
 171 358.330029444 l 5
 152.96095602 333.947585383 l 5
EndSplineSet
EndChar

StartChar: numbersign
Encoding: 35 35 70
Width: 372
VWidth: 60
Flags: HW
LayerCount: 2
Fore
SplineSet
60 105 m 1
 102 105 l 1
 102 274 l 1
 186 274 l 1
 186 105 l 1
 228 105 l 1
 228 274 l 1
 343 274 l 1
 343 329 l 1
 274 329 l 1
 274 463 l 1
 343 463 l 1
 343 517 l 1
 310 517 l 1
 310 700 l 1
 268 700 l 1
 268 517 l 1
 184 517 l 1
 184 700 l 1
 142 700 l 1
 142 517 l 1
 29 517 l 1
 29 463 l 1
 106 463 l 1
 106 329 l 1
 29 328 l 1
 29 274 l 1
 60 274 l 1
 60 105 l 1
232 329 m 1
 148 329 l 1
 148 463 l 1
 232 463 l 1
 232 329 l 1
EndSplineSet
EndChar

StartChar: colon
Encoding: 58 58 71
Width: 396
VWidth: 45
Flags: HW
LayerCount: 2
Fore
SplineSet
360.899414062 561 m 1
 360.899414062 465 l 1
 266.899414062 465 l 1
 266.899414062 561 l 1
 360.899414062 561 l 1
357.899414062 181 m 5
 357.899414062 95 l 5
 266.899414062 95 l 1
 266.899414062 181 l 1
 357.899414062 181 l 5
EndSplineSet
EndChar

StartChar: slash
Encoding: 47 47 72
Width: 487
VWidth: 58
Flags: HW
LayerCount: 2
Fore
SplineSet
142 31 m 5
 105 56 l 5
 350 789 l 1
 387 763 l 1
 142 31 l 5
EndSplineSet
EndChar
